<svg xmlns="http://www.w3.org/2000/svg" style="border: 0 !important; clip: rect(0 0 0 0) !important; height: 1px !important; margin: -1px !important; overflow: hidden !important; padding: 0 !important; position: absolute !important; width: 1px !important;" class="root-svg-symbols-element">
  <defs>
      <path d="M17.5 35C27.165 35 35 27.165 35 17.5S27.165 0 17.5 0 0 7.835 0 17.5 7.835 35 17.5 35z" id="a"/><mask id="b" x="0" y="0" width="35" height="35" fill="#fff"></mask>
<path d="M17.5 35C27.165 35 35 27.165 35 17.5S27.165 0 17.5 0 0 7.835 0 17.5 7.835 35 17.5 35z" id="a"/><mask id="b" x="0" y="0" width="35" height="35" fill="#fff"></mask>
<path d="M22.5 45C34.926 45 45 34.926 45 22.5S34.926 0 22.5 0 0 10.074 0 22.5 10.074 45 22.5 45z" id="a"/><mask id="b" x="0" y="0" width="45" height="45" fill="#fff"></mask>
  </defs>
    <symbol id="arrow_left" viewBox="0 0 35 35">
      <title>arrow_left</title><g fill="#FFF" fill-rule="evenodd"><use stroke-opacity=".11" stroke="#FFF" mask="url(#b)" stroke-width="4" fill-opacity=".1"/><path d="M19.02 22.906l-4.836-4.951a.653.653 0 0 1 0-.91l4.836-4.95a.309.309 0 0 1 .444 0l.444.454a.327.327 0 0 1 0 .454l-4.17 4.27a.327.327 0 0 0 0 .454l4.17 4.27a.327.327 0 0 1 0 .454l-.444.455a.309.309 0 0 1-.444 0"/></g>
    </symbol>
    <symbol id="arrow_right" viewBox="0 0 35 35">
      <title>arrow_right</title><g fill="#FFF" fill-rule="evenodd"><use stroke-opacity=".11" stroke="#FFF" mask="url(#b)" stroke-width="4" fill-opacity=".1" transform="matrix(-1 0 0 1 35 0)"/><path d="M15.98 22.906l4.836-4.951a.653.653 0 0 0 0-.91l-4.836-4.95a.309.309 0 0 0-.444 0l-.444.454a.327.327 0 0 0 0 .454l4.17 4.27a.327.327 0 0 1 0 .454l-4.17 4.27a.327.327 0 0 0 0 .454l.444.455a.309.309 0 0 0 .444 0"/></g>
    </symbol>
    <symbol id="behance" viewBox="0 0 19 12">
      <title>Behance</title><path d="M7.817 5.367c.394-.198.692-.419.895-.659.363-.43.543-1 .543-1.706 0-.686-.18-1.275-.538-1.768C8.12.432 7.107.021 5.674 0H0v11.583h5.29c.597 0 1.15-.05 1.66-.156a3.237 3.237 0 0 0 2.156-1.492c.35-.545.525-1.162.525-1.848 0-.666-.153-1.232-.457-1.697-.307-.467-.759-.807-1.357-1.023zM2.34 2.011h2.556c.561 0 1.024.061 1.388.181.42.174.63.53.63 1.071 0 .485-.16.824-.477 1.016-.32.192-.734.288-1.242.288H2.34V2.011zM6.38 9.37c-.283.135-.68.204-1.19.204H2.34v-3.09h2.89c.503.005.895.071 1.175.197.499.226.747.64.747 1.243 0 .712-.257 1.192-.772 1.446zM12.14.54h5.031v1.442H12.14V.54zm6.087 3.92c-.393-.577-.892-1-1.5-1.267-.605-.268-1.285-.403-2.041-.403-1.272 0-2.306.398-3.104 1.189-.797.792-1.196 1.93-1.196 3.415 0 1.582.44 2.726 1.326 3.428.882.703 1.901 1.054 3.058 1.054 1.4 0 2.488-.416 3.266-1.249.498-.524.78-1.041.841-1.548H16.56c-.134.25-.29.447-.468.59-.323.26-.744.392-1.259.392-.489 0-.906-.108-1.252-.323-.572-.345-.871-.948-.91-1.806h6.327c.01-.74-.015-1.308-.076-1.701a4.14 4.14 0 0 0-.694-1.771zm-5.5 1.994c.082-.558.285-1 .605-1.326.32-.326.774-.49 1.355-.49.536 0 .984.154 1.348.461.36.31.564.76.605 1.355h-3.914z" fill-rule="evenodd"/>
    </symbol>
    <symbol id="branding" viewBox="0 0 52 48">
      <title>branding</title><g fill="none" fill-rule="evenodd"><path d="M13.07 14.717H9.165a.852.852 0 0 1-.844-.858c0-.474.378-.859.844-.859h3.907c.465 0 .843.385.843.859a.851.851 0 0 1-.843.858zm7.816 0h-3.908a.851.851 0 0 1-.843-.858c0-.474.378-.859.843-.859h3.908c.465 0 .843.385.843.859a.851.851 0 0 1-.843.858zm7.816 0h-3.909a.851.851 0 0 1-.842-.858.85.85 0 0 1 .842-.859h3.909a.85.85 0 0 1 .842.859.851.851 0 0 1-.842.858zm15.63 0h-3.908a.851.851 0 0 1-.843-.858c0-.474.378-.859.843-.859h3.907c.465 0 .843.385.843.859a.851.851 0 0 1-.843.858zM1.842 16.38a.823.823 0 0 1-.532-.195.87.87 0 0 1-.12-1.208A5.23 5.23 0 0 1 5.252 13c.487.005.845.38.847.854a.85.85 0 0 1-.838.863 3.564 3.564 0 0 0-2.765 1.347.834.834 0 0 1-.652.315zm49.049 1.316a.844.844 0 0 1-.793-.566 3.617 3.617 0 0 0-2.173-2.2.863.863 0 0 1-.51-1.098.84.84 0 0 1 1.076-.52 5.319 5.319 0 0 1 3.192 3.232.862.862 0 0 1-.505 1.1.802.802 0 0 1-.287.052zM.842 24.103A.851.851 0 0 1 0 23.244v-3.981c0-.474.378-.859.843-.859a.85.85 0 0 1 .842.859v3.981a.851.851 0 0 1-.842.859zm50.315 1.523a.851.851 0 0 1-.842-.858v-3.982a.85.85 0 0 1 .842-.859c.465 0 .843.385.843.859v3.982a.851.851 0 0 1-.843.858zM.843 32.066A.851.851 0 0 1 0 31.207v-3.982c0-.473.378-.858.843-.858a.85.85 0 0 1 .842.858v3.982a.851.851 0 0 1-.842.859zm50.314 1.523a.851.851 0 0 1-.842-.859v-3.982a.85.85 0 0 1 .842-.858c.465 0 .843.385.843.858v3.982a.851.851 0 0 1-.843.859zM1.1 39.997a.842.842 0 0 1-.794-.57A5.44 5.44 0 0 1 0 37.618v-2.431c0-.474.378-.859.843-.859a.85.85 0 0 1 .842.859v2.431c0 .423.07.838.209 1.232a.864.864 0 0 1-.512 1.096.813.813 0 0 1-.283.05zm49.073 1.321a.83.83 0 0 1-.53-.19.868.868 0 0 1-.125-1.208 3.664 3.664 0 0 0 .798-2.3v-.909a.85.85 0 0 1 .842-.858.85.85 0 0 1 .843.858v.908A5.45 5.45 0 0 1 50.827 41a.834.834 0 0 1-.655.318zM7.642 43h-2.36a5.16 5.16 0 0 1-1.803-.322.863.863 0 0 1-.505-1.1.839.839 0 0 1 1.08-.514c.392.145.805.219 1.227.219h2.362a.85.85 0 0 1 .843.858.85.85 0 0 1-.843.859zm7.816 0h-3.907a.851.851 0 0 1-.843-.859c0-.473.378-.858.843-.858h3.907c.465 0 .843.385.843.858a.851.851 0 0 1-.843.859zm7.816 0h-3.908a.85.85 0 0 1-.842-.859.85.85 0 0 1 .842-.858h3.908a.85.85 0 0 1 .842.858.851.851 0 0 1-.842.859zm7.815 0h-3.908a.851.851 0 0 1-.843-.859c0-.473.378-.858.843-.858h3.908c.465 0 .843.385.843.858a.851.851 0 0 1-.843.859zm11.723 0a.851.851 0 0 1-.843-.859c0-.473.378-.858.843-.858h3.907c.466 0 .868.384.868.858s-.352.859-.817.859v-.86l-.027.86h-3.931z" fill-opacity=".3" fill="#43484D"/><path fill="#E0E7ED" d="M22.92 42.043H12.17V13.631h10.75z"/><path d="M29.896 7.043h3.273m-3.273 14h3.273m-3.273-7h6.273m-6.273 14h6.273m-6.273 6.999h3.273m-3.273 7h6.273" fill="#FEFEFE"/><path d="M40.34 44.106c0 1.215-.972 2.203-2.165 2.203h-5.902c-.89 0-1.612-.736-1.612-1.641v-1.877h5.299a.84.84 0 0 0 .83-.846.838.838 0 0 0-.83-.845h-5.3v-5.27h2.369c.458 0 .83-.379.83-.845a.838.838 0 0 0-.83-.845H30.66v-5.27h5.299c.458 0 .83-.379.83-.845a.838.838 0 0 0-.83-.846h-5.3v-5.27h2.369c.458 0 .83-.378.83-.845a.838.838 0 0 0-.83-.845H30.66v-5.27h5.299c.458 0 .83-.379.83-.845a.838.838 0 0 0-.83-.845h-5.3v-5.27h2.369a.84.84 0 0 0 .83-.846.838.838 0 0 0-.83-.845H30.66V3.331c0-.905.723-1.64 1.612-1.64h6.454c.89 0 1.612.735 1.612 1.64v40.775zM38.726 0h-6.454C30.468 0 29 1.495 29 3.331v41.337C29 46.505 30.468 48 32.273 48h5.902C40.285 48 42 46.253 42 44.106V3.331C42 1.495 40.532 0 38.727 0z" fill="#43484D"/><path d="M12.92 13.63h9.25m-10 28.412h10.75M17.545 13.63v27.746m0-34.264v-2.57" fill="#FEFEFE"/><path d="M18.677 46.317h-3.354c-1.48 0-2.684-1.237-2.684-2.757v-.747h8.722v.747c0 1.52-1.203 2.757-2.684 2.757zM16.186 8.673A.96.96 0 0 1 17 8.228c.332 0 .63.162.814.445l2.828 4.325h-7.285l2.829-4.325zm1.633 6.008h3.521c.01.096.021.192.021.289v26.16H17.82V14.68zm-5.18.289c0-.097.011-.193.02-.289h3.522V41.13h-3.542V14.97zm9.608-2.537l-3.073-4.698a2.612 2.612 0 0 0-1.355-1.038V4.842A.831.831 0 0 0 17 4a.831.831 0 0 0-.82.842v1.855a2.618 2.618 0 0 0-1.355 1.038l-3.073 4.698A4.628 4.628 0 0 0 11 14.97v28.59c0 2.448 1.938 4.44 4.323 4.44h3.354C21.061 48 23 46.008 23 43.56V14.97c0-.907-.26-1.784-.753-2.537z" fill="#43484D"/></g>
    </symbol>
    <symbol id="coding" viewBox="0 0 47 48">
      <title>coding</title><g fill="none" fill-rule="evenodd"><path d="M.85 3.738v10.957h45.317V3.738a3 3 0 0 0-3-3H3.85a3 3 0 0 0-3 3" fill="#E0E7ED"/><path d="M43.151 46.307H3.85c-1.185 0-2.15-.96-2.15-2.14V15.681h43.602v28.484a2.147 2.147 0 0 1-2.15 2.141zM1.7 3.925c0-1.18.965-2.14 2.15-2.14h39.3c1.186 0 2.15.96 2.15 2.14V13.99H1.699V3.925zM43.151 0H3.85C1.726 0 0 1.72 0 3.834v40.332C0 46.28 1.726 48 3.849 48H43.15c2.124 0 3.85-1.72 3.85-3.834V3.834C47 1.72 45.274 0 43.151 0z" fill="#43484D"/><path d="M17.753 26.321a.85.85 0 0 0-1.202 0l-4.665 4.665a.85.85 0 0 0 0 1.202l4.665 4.665a.846.846 0 0 0 1.202 0 .85.85 0 0 0 0-1.202l-4.064-4.064 4.064-4.064a.85.85 0 0 0 0-1.202m10.852 0a.85.85 0 1 0-1.201 1.202l4.064 4.064-4.064 4.064a.85.85 0 1 0 1.201 1.202l4.667-4.665a.85.85 0 0 0 0-1.202l-4.666-4.665zm-3.647-2.948a.852.852 0 0 0-1.065.557l-4.241 13.55a.85.85 0 1 0 1.622.509l4.241-13.551a.85.85 0 0 0-.557-1.065M10.293 7.717a1.914 1.914 0 1 1-3.828 0 1.914 1.914 0 0 1 3.828 0" fill="#43484D"/><path d="M16.293 7.717a1.914 1.914 0 1 1-3.828 0 1.914 1.914 0 0 1 3.828 0m6 0a1.914 1.914 0 1 1-3.828 0 1.914 1.914 0 0 1 3.828 0" fill="#43484D" opacity=".3"/></g>
    </symbol>
    <symbol id="consultancy" viewBox="0 0 56 45">
      <title>consultancy</title><g fill="none" fill-rule="evenodd"><path d="M3.437 27.156a.852.852 0 0 1-.252-.038l-2.558-.794a.849.849 0 1 1 .504-1.624l2.558.794a.85.85 0 0 1-.252 1.662m7.64 2.371a.852.852 0 0 1-.252-.038l-3.82-1.186a.849.849 0 1 1 .503-1.624l3.821 1.186a.85.85 0 0 1-.252 1.662m37.13-1.368a.82.82 0 0 1-.223-.03l-3.861-1.044a.85.85 0 0 1 .443-1.641l3.862 1.045a.85.85 0 1 1-.221 1.67m6.445 1.744a.848.848 0 0 1-.222-.03l-2.584-.7a.85.85 0 0 1 .443-1.64l2.584.699a.85.85 0 0 1-.221 1.67" fill="#43484D" opacity=".3"/><path d="M34.096 1.623H13.561a3 3 0 0 0-3 3v36.492a3 3 0 0 0 3 3h28.954a3 3 0 0 0 3-3V13.296" fill="#E0E7ED"/><path d="M42.516 44.966H13.562a3.854 3.854 0 0 1-3.85-3.85V4.623a3.854 3.854 0 0 1 3.85-3.85h20.535a.85.85 0 1 1 0 1.7H13.562c-1.186 0-2.15.965-2.15 2.15v36.493c0 1.185.964 2.15 2.15 2.15h28.954c1.186 0 2.15-.965 2.15-2.15v-27.82a.85.85 0 1 1 1.7 0v27.82a3.854 3.854 0 0 1-3.85 3.85" fill="#43484D"/><path d="M34.096 1.623v9.173a2.5 2.5 0 0 0 2.5 2.5h8.92L34.095 1.623z" fill="#FEFEFE"/><path d="M34.946 3.708v7.088c0 .91.74 1.65 1.65 1.65h6.9l-8.55-8.739zm10.57 10.438h-8.92a3.353 3.353 0 0 1-3.349-3.35V1.624a.85.85 0 0 1 1.457-.595l11.42 11.674a.85.85 0 0 1-.609 1.444zM20.3 32.536a.836.836 0 0 1-.246-.037l-9.74-2.965a.85.85 0 1 1 .495-1.626l9.29 2.828 10.386-9.009a.842.842 0 0 1 .78-.178l14.474 3.942a.849.849 0 1 1-.447 1.64l-14.037-3.823-10.397 9.02a.85.85 0 0 1-.557.208" fill="#43484D"/><path d="M22.59 29.864a2.61 2.61 0 1 1-3.784 3.594 2.61 2.61 0 0 1 3.784-3.594" fill="#FEFEFE"/><path d="M20.698 29.902a1.758 1.758 0 0 0-1.274 2.971c.645.681 1.804.71 2.487.064a1.763 1.763 0 0 0 .063-2.488 1.745 1.745 0 0 0-1.276-.547m.001 5.218a3.476 3.476 0 0 1-2.508-1.076 3.465 3.465 0 0 1 .124-4.89c1.331-1.263 3.627-1.205 4.892.124a3.464 3.464 0 0 1-.126 4.891 3.445 3.445 0 0 1-2.382.951" fill="#43484D"/><path d="M32.863 20.572a2.61 2.61 0 1 1-3.785 3.594 2.61 2.61 0 0 1 3.785-3.594" fill="#FEFEFE"/><path d="M30.972 20.61c-.453 0-.883.171-1.211.483a1.745 1.745 0 0 0-.548 1.231c-.012.47.159.916.484 1.257.646.681 1.804.711 2.487.063a1.761 1.761 0 0 0-1.212-3.034m0 5.218a3.474 3.474 0 0 1-2.508-1.076 3.434 3.434 0 0 1-.95-2.472 3.43 3.43 0 0 1 1.076-2.419c1.327-1.264 3.628-1.204 4.89.125a3.464 3.464 0 0 1-.126 4.891 3.445 3.445 0 0 1-2.382.951" fill="#43484D"/></g>
    </symbol>
    <symbol id="design" viewBox="0 0 57 53">
      <title>design</title><g fill="none" fill-rule="evenodd"><path fill="#E0E7ED" d="M9.253 15.176l20.05-11.57 20.05 11.57v23.14l-20.05 11.569-20.05-11.57z"/><path d="M10.088 37.832L29.303 48.92l19.214-11.088V15.658L29.303 4.57 10.088 15.658v22.174zM29.303 50.72a.835.835 0 0 1-.418-.111l-20.05-11.57a.836.836 0 0 1-.418-.724v-23.14c0-.299.159-.574.418-.723l20.05-11.57a.836.836 0 0 1 .836 0l20.05 11.57c.259.15.417.424.417.723v23.14a.837.837 0 0 1-.417.724l-20.05 11.57a.832.832 0 0 1-.418.11z" fill="#86939E"/><path d="M32.05 48.963a2.747 2.747 0 1 1-5.494-.001 2.747 2.747 0 0 1 5.495.001" fill="#FEFEFE"/><path d="M29.303 47.052a1.913 1.913 0 0 0-1.912 1.911c0 1.055.858 1.912 1.912 1.912a1.914 1.914 0 0 0 1.912-1.912c0-1.054-.857-1.91-1.912-1.91m0 5.492a3.586 3.586 0 0 1-3.583-3.582 3.586 3.586 0 0 1 3.583-3.58 3.586 3.586 0 0 1 3.584 3.58 3.586 3.586 0 0 1-3.584 3.582" fill="#43484D"/><path d="M32.05 4.304a2.747 2.747 0 1 1-5.494-.001 2.747 2.747 0 0 1 5.495.001" fill="#FEFEFE"/><path d="M29.303 2.393a1.913 1.913 0 0 0-1.912 1.911c0 1.055.858 1.912 1.912 1.912a1.914 1.914 0 0 0 1.912-1.912c0-1.054-.857-1.91-1.912-1.91m0 5.492a3.586 3.586 0 0 1-3.583-3.582 3.586 3.586 0 0 1 3.583-3.58 3.586 3.586 0 0 1 3.584 3.58 3.586 3.586 0 0 1-3.584 3.582" fill="#43484D"/><path d="M11.542 15.613a2.747 2.747 0 1 1-5.494-.002 2.747 2.747 0 0 1 5.494.002" fill="#FEFEFE"/><path d="M8.795 13.702a1.913 1.913 0 0 0-1.912 1.91c0 1.056.857 1.913 1.912 1.913a1.914 1.914 0 0 0 1.911-1.912 1.913 1.913 0 0 0-1.911-1.911m0 5.493a3.586 3.586 0 0 1-3.584-3.582 3.586 3.586 0 0 1 3.584-3.581 3.586 3.586 0 0 1 3.583 3.58 3.586 3.586 0 0 1-3.583 3.583" fill="#43484D"/><path d="M51.668 38.28a2.747 2.747 0 1 1-5.495-.001 2.747 2.747 0 0 1 5.495.002" fill="#F4F4F4"/><path d="M48.92 36.37a1.913 1.913 0 0 0-1.912 1.91c0 1.055.858 1.912 1.912 1.912a1.914 1.914 0 0 0 1.912-1.912c0-1.053-.858-1.91-1.912-1.91m0 5.492a3.586 3.586 0 0 1-3.584-3.582 3.586 3.586 0 0 1 3.584-3.58 3.586 3.586 0 0 1 3.584 3.58 3.586 3.586 0 0 1-3.584 3.582" fill="#43484D"/><path d="M14.484 47.094L3.105 29.505" fill="#FEFEFE"/><path d="M14.485 47.93a.838.838 0 0 1-.703-.382L2.403 29.96a.836.836 0 1 1 1.404-.908l11.38 17.59a.836.836 0 0 1-.702 1.29" fill="#86939E"/><path d="M11.102 36.809a2.748 2.748 0 1 1-3.8-.815 2.748 2.748 0 0 1 3.8.815" fill="#FEFEFE"/><path d="M8.792 36.389a1.913 1.913 0 0 0-1.603 2.949c.552.853 1.782 1.122 2.643.566a1.9 1.9 0 0 0 .831-1.203 1.893 1.893 0 0 0-.263-1.438 1.905 1.905 0 0 0-1.608-.874m.004 5.492a3.574 3.574 0 0 1-3.012-1.636 3.587 3.587 0 0 1 1.064-4.953 3.576 3.576 0 0 1 1.944-.574 3.57 3.57 0 0 1 3.012 1.638c.52.802.695 1.76.494 2.695a3.555 3.555 0 0 1-1.558 2.256 3.571 3.571 0 0 1-1.944.574" fill="#43484D"/><path d="M4.365 28.578a1.828 1.828 0 1 1-1.828-1.827c1.01 0 1.828.818 1.828 1.827m12.25 19.172a1.828 1.828 0 1 1-1.828-1.827c1.01 0 1.828.818 1.828 1.828" fill="#86939E"/><path d="M54.59 24.319L43.21 6.729" fill="#FEFEFE"/><path d="M54.59 25.155a.838.838 0 0 1-.703-.383L42.509 7.184a.836.836 0 1 1 1.405-.908L55.29 23.865a.836.836 0 0 1-.7 1.29" fill="#86939E"/><path d="M51.208 14.033a2.748 2.748 0 1 1-3.8-.815 2.748 2.748 0 0 1 3.8.815" fill="#F4F4F4"/><path d="M48.898 13.614c-.367 0-.725.105-1.036.306a1.897 1.897 0 0 0-.83 1.203c-.108.5-.015 1.01.263 1.438.551.855 1.78 1.126 2.643.568a1.912 1.912 0 0 0-1.04-3.515m.005 5.492a3.574 3.574 0 0 1-3.013-1.636 3.582 3.582 0 0 1 3.007-5.527c1.223 0 2.35.611 3.013 1.636a3.587 3.587 0 0 1-1.064 4.953 3.576 3.576 0 0 1-1.943.574" fill="#43484D"/><path d="M44.471 5.803a1.828 1.828 0 1 1-1.828-1.827c1.01 0 1.828.817 1.828 1.827M56.72 24.975a1.828 1.828 0 1 1-1.828-1.827c1.01 0 1.829.818 1.829 1.827" fill="#86939E"/><path d="M20.649 19.998a.833.833 0 0 1-.729-.426l-.091-.16a.836.836 0 0 1 1.455-.822l.092.16a.836.836 0 0 1-.727 1.248m15.949 2.406a.837.837 0 0 1-.727-1.246l1.45-2.568a.836.836 0 1 1 1.457.822l-1.451 2.568a.836.836 0 0 1-.73.424m-13.048 2.73a.837.837 0 0 1-.729-.426l-1.45-2.567a.837.837 0 0 1 1.456-.822l1.45 2.568a.835.835 0 0 1-.727 1.247m10.15 2.407a.836.836 0 0 1-.728-1.247l1.45-2.568a.836.836 0 0 1 1.455.822l-1.449 2.568a.836.836 0 0 1-.728.425m-7.25 2.729a.838.838 0 0 1-.73-.425l-1.449-2.568a.836.836 0 0 1 1.456-.822l1.45 2.569a.836.836 0 0 1-.728 1.246m4.35 2.407a.836.836 0 0 1-.727-1.246l1.45-2.568a.836.836 0 0 1 1.456.82l-1.45 2.57a.84.84 0 0 1-.73.424m-1.494 2.648a.834.834 0 0 1-.727-.424l-1.406-2.488a.835.835 0 1 1 1.456-.822l1.264 2.238c.287.248.381.643.188.988l-.045.08a.863.863 0 0 1-.73.428" fill="#43474D"/></g>
    </symbol>
    <symbol id="explore" viewBox="0 0 45 45">
      <title>explore</title><g fill="none" fill-rule="evenodd"><circle fill="#7DC855" cx="22.5" cy="22.5" r="22.5"/><path d="M17.459 19.304l4.32 4.411a1.004 1.004 0 0 0 1.44 0l4.322-4.41a1.005 1.005 0 0 1 1.44 0l.72.734a1.057 1.057 0 0 1 0 1.47l-5.761 5.882a2.008 2.008 0 0 1-2.88 0l-5.762-5.881a1.057 1.057 0 0 1 0-1.47l.72-.736a1.005 1.005 0 0 1 1.44 0" fill="#FFF"/></g>
    </symbol>
    <symbol id="facebook" viewBox="0 0 16 16">
      <title>Facebook</title><path d="M16 15.117a.883.883 0 0 1-.883.883H11.04V9.804h2.08l.311-2.415H11.04V5.847c0-.699.194-1.175 1.197-1.175h1.278v-2.16a16.95 16.95 0 0 0-1.863-.095c-1.843 0-3.106 1.125-3.106 3.192v1.78H6.461v2.415h2.085V16H.883A.883.883 0 0 1 0 15.117V.883C0 .395.395 0 .883 0h14.234c.488 0 .883.395.883.883v14.234" fill-rule="evenodd"/>
    </symbol>
    <symbol id="googleplus" viewBox="0 0 24 15">
      <title>Google+</title><path d="M7.484 6.015v2.97s2.875-.004 4.045-.004c-.634 1.926-1.62 2.974-4.045 2.974-2.456 0-4.372-1.994-4.372-4.455 0-2.46 1.916-4.455 4.372-4.455 1.298 0 2.136.457 2.905 1.094.615-.617.564-.705 2.13-2.187A7.447 7.447 0 0 0 7.484 0C3.35 0 0 3.358 0 7.5 0 11.642 3.35 15 7.484 15c6.177 0 7.687-5.391 7.187-8.985H7.484zm13.484.148V3.564h-1.852v2.6h-2.668V8.02h2.668v2.673h1.852V8.02h2.593V6.163h-2.593z" fill-rule="evenodd"/>
    </symbol>
    <symbol id="instagram" viewBox="0 0 16 16">
      <title>Instagram</title><path d="M14.098 0H1.902A1.9 1.9 0 0 0 0 1.897v12.206A1.9 1.9 0 0 0 1.902 16h12.196A1.9 1.9 0 0 0 16 14.103V1.897A1.9 1.9 0 0 0 14.098 0zM11.5 2.5A.5.5 0 0 1 12 2h1.5a.5.5 0 0 1 .5.5V4a.5.5 0 0 1-.5.5H12a.5.5 0 0 1-.5-.5V2.5zM8.02 4.949a3.074 3.074 0 0 1 3.077 3.07 3.073 3.073 0 0 1-3.077 3.07 3.073 3.073 0 0 1-3.077-3.07 3.074 3.074 0 0 1 3.077-3.07zm6.481 9.05a.5.5 0 0 1-.5.501H2a.5.5 0 0 1-.5-.5V6.5h2c-.26.375-.349 1.074-.349 1.519 0 2.677 2.184 4.855 4.868 4.855 2.683 0 4.867-2.178 4.867-4.855 0-.445-.063-1.133-.386-1.52h2V14z" fill-rule="evenodd"/>
    </symbol>
    <symbol id="menu" viewBox="0 0 50 50">
      <path style="text-indent:0;text-align:start;line-height:normal;text-transform:none;block-progression:tb;-inkscape-font-specification:Bitstream Vera Sans" d="M0 7.5v5h50v-5H0zm0 15v5h50v-5H0zm0 15v5h50v-5H0z" color="#000" overflow="visible" font-family="Bitstream Vera Sans"/>
    </symbol>
    <symbol id="outside" viewBox="0 0 45 45">
      <title>href</title><g fill="#FFF" fill-rule="evenodd"><use stroke-opacity=".11" stroke="#FFF" mask="url(#b)" stroke-width="4" fill-opacity=".1"/><path d="M31.854 20.718l-5.161-5.536c-.347-.372-.984-.135-.984.366v1.95c0 .18-.14.329-.326.35-5.68.622-10.54 4.404-12.326 9.768-.35 1.054 1 1.855 1.803 1.066l.036-.035c2.758-2.706 6.52-4.229 10.446-4.229.202 0 .367.16.367.356v1.847c0 .5.637.738.984.366l5.161-5.536a.534.534 0 0 0 0-.733"/></g>
    </symbol>
    <symbol id="rising" viewBox="0 0 16 14">
      <title>Icon</title><path d="M10.657 2.262c-.455.229-.48.93-.047 1.263l1.357 1.04L9.612 8.49 6.26 5.207a.862.862 0 0 0-.71-.21.919.919 0 0 0-.621.443L.157 12.394c-.283.471-.173 1.111.248 1.43.158.12.337.176.514.176a.896.896 0 0 0 .763-.453l4.216-6.034 3.37 3.3c.203.18.462.254.721.207a.921.921 0 0 0 .622-.459l2.875-4.835 1.292.99c.435.332 1.003.046 1.024-.516l.197-5.388c.02-.561-.522-.977-.977-.748l-4.365 2.198z" fill-rule="evenodd"/>
    </symbol>
    <symbol id="strategy" viewBox="0 0 60 45">
      <title>strategy</title><g fill="none" fill-rule="evenodd"><path d="M22.309 22.7h-4a.85.85 0 0 1 0-1.7h4a.85.85 0 0 1 0 1.7m-12 .431a.85.85 0 0 1-.354-1.623A5.568 5.568 0 0 1 12.29 21h1.956a.85.85 0 0 1 0 1.7H12.29c-.567 0-1.115.119-1.627.354a.856.856 0 0 1-.354.077m-3 6.541a.85.85 0 0 1-.85-.85v-2.384c0-.635.1-1.26.302-1.857a.849.849 0 1 1 1.611.54 4.157 4.157 0 0 0-.213 1.317v2.384a.85.85 0 0 1-.85.85zM36.85 22.7h4a.85.85 0 0 0 0-1.7h-4a.85.85 0 0 0 0 1.7zm-4 0a.85.85 0 0 0 0-1.7h-7a.85.85 0 0 0 0 1.7h7zm15.937.431a.85.85 0 0 0 .354-1.623A5.568 5.568 0 0 0 46.806 21H44.85a.85.85 0 0 0 0 1.7h1.956c.567 0 1.115.119 1.627.354a.856.856 0 0 0 .354.077zm2.852 6.868a.85.85 0 0 0 .85-.85v-2.384c0-.635-.101-1.26-.302-1.857a.849.849 0 1 0-1.611.54c.141.423.213.866.213 1.317v2.384c0 .469.381.85.85.85z" fill="#43484D" opacity=".3"/><path d="M27.466 37.298h3.967m0 .85h-3.967a.85.85 0 1 1 0-1.7h3.967a.85.85 0 0 1 0 1.7" fill="#43484D"/><path d="M41.493 14.877H17.405a2 2 0 0 1-2-2V3.559a2 2 0 0 1 2-2h24.088a2 2 0 0 1 2 2v9.318a2 2 0 0 1-2 2" fill="#E0E7ED"/><path d="M25.7 8.218h7.5M13.334 37.412a5.816 5.816 0 0 1-5.81 5.81 5.816 5.816 0 0 1-5.81-5.81v-.229a5.816 5.816 0 0 1 5.81-5.809 5.816 5.816 0 0 1 5.81 5.81v.228zm-5.81-7.738c-4.14 0-7.51 3.368-7.51 7.51v.228c0 4.141 3.37 7.51 7.51 7.51s7.51-3.369 7.51-7.51v-.229c0-4.14-3.37-7.509-7.51-7.509z" fill="#43484D"/><path d="M7.524 34.464a.85.85 0 0 0-.85.85v3.967a.85.85 0 1 0 1.7 0v-3.967a.85.85 0 0 0-.85-.85m49.789 2.948a5.816 5.816 0 0 1-5.81 5.81 5.816 5.816 0 0 1-5.809-5.81v-.229a5.816 5.816 0 0 1 5.809-5.809 5.816 5.816 0 0 1 5.81 5.81v.228zm-5.81-7.738c-4.14 0-7.509 3.368-7.509 7.51v.228c0 4.141 3.369 7.51 7.509 7.51 4.141 0 7.51-3.369 7.51-7.51v-.229c0-4.14-3.369-7.509-7.51-7.509z" fill="#43484D"/><path d="M51.503 34.464a.85.85 0 0 0-.85.85v3.967a.85.85 0 1 0 1.7 0v-3.967a.85.85 0 0 0-.85-.85m-8.86-21.587c0 .634-.516 1.15-1.15 1.15H17.406a1.15 1.15 0 0 1-1.15-1.15V3.56c0-.635.515-1.15 1.15-1.15h24.087c.634 0 1.15.515 1.15 1.15v9.317zM33.14 31.374c1.185 0 2.15.964 2.15 2.15v7.547c0 1.186-.965 2.15-2.15 2.15h-7.32a2.152 2.152 0 0 1-2.15-2.15v-7.547c0-1.186.964-2.15 2.15-2.15h7.32zM44.343 3.56a2.853 2.853 0 0 0-2.85-2.85H17.406a2.853 2.853 0 0 0-2.85 2.85v9.317a2.853 2.853 0 0 0 2.85 2.85H28.63v13.947h-2.81a3.854 3.854 0 0 0-3.85 3.85v7.547a3.854 3.854 0 0 0 3.85 3.85h7.32a3.854 3.854 0 0 0 3.85-3.85v-7.547a3.854 3.854 0 0 0-3.85-3.85h-2.81V15.727h11.163a2.854 2.854 0 0 0 2.85-2.85V3.56z" fill="#43484D"/><path d="M33.2 7.368h-7.5a.85.85 0 0 0 0 1.7h7.5a.85.85 0 0 0 0-1.7" fill="#43484D"/></g>
    </symbol>
    <symbol id="support" viewBox="0 0 38 47">
      <title>support</title><g fill="none" fill-rule="evenodd"><path d="M14.773 37.327H6V3.5A2.5 2.5 0 0 1 8.5 1h3.773a2.5 2.5 0 0 1 2.5 2.5v33.827z" fill="#E0E7ED"/><path d="M13.465 39.447c0 .43-.11.852-.319 1.227L9.928 44.62l-3.217-3.945a2.522 2.522 0 0 1-.319-1.227v-1.233h7.073v1.233zm0-31.169v28.11H6.392V8.227c2.24.006 4.89.027 7.073.05zM8.042 1.76h3.773c.91 0 1.65.74 1.65 1.65v3.168c-3.059-.033-5.35-.054-7.073-.06V3.41c0-.91.74-1.65 1.65-1.65zm3.773-1.7H8.042a3.354 3.354 0 0 0-3.35 3.35v3.104c-3.43.007-3.539.107-3.75.316a.856.856 0 0 0-.255.607v17.03a.85.85 0 0 0 1.7 0V8.238c.538-.01 1.344-.015 2.305-.015v29.013c0 .023.011.041.013.064-.002.022-.013.04-.013.063v2.083c0 .752.202 1.493.584 2.141a.866.866 0 0 0 .073.106L9.27 46.5a.849.849 0 0 0 1.317 0l3.92-4.807a.774.774 0 0 0 .074-.106 4.224 4.224 0 0 0 .584-2.14v-2.084c0-.023-.01-.04-.013-.063.002-.023.013-.04.013-.064V3.41a3.354 3.354 0 0 0-3.35-3.35z" fill="#43484D"/><path d="M18.852 8.225H16.17a.85.85 0 0 1 0-1.7h2.683a.85.85 0 0 1 0 1.7m8 0h-4a.85.85 0 0 1 0-1.7h4a.85.85 0 0 1 0 1.7m7.923.435a.848.848 0 0 1-.423-.114 2.422 2.422 0 0 0-1.207-.321h-2.293a.85.85 0 0 1 0-1.7h2.293c.721 0 1.432.189 2.055.548a.851.851 0 0 1-.425 1.587m1.645 7.4a.85.85 0 0 1-.85-.85v-4a.85.85 0 0 1 1.7 0v4a.85.85 0 0 1-.85.85m0 8a.85.85 0 0 1-.85-.85v-4a.85.85 0 0 1 1.7 0v4a.85.85 0 0 1-.85.85m0 8a.85.85 0 0 1-.85-.85v-4a.85.85 0 0 1 1.7 0v4a.85.85 0 0 1-.85.85m-16.25 5.155h-4a.85.85 0 0 1 0-1.7h4a.85.85 0 1 1 0 1.7m8 0h-4a.85.85 0 0 1 0-1.7h4a.85.85 0 1 1 0 1.7m4.974 0h-.974a.85.85 0 0 1 0-1.7h.974c.767 0 1.473-.351 1.936-.963a.85.85 0 0 1 1.356 1.027 4.097 4.097 0 0 1-3.291 1.636" fill="#43484D" opacity=".3"/><path d="M19.295 16.018h11a.85.85 0 0 0 0-1.7h-11a.85.85 0 0 0 0 1.7m11 5.299h-11a.85.85 0 0 0 0 1.7h11a.85.85 0 0 0 0-1.7m0 7h-11a.85.85 0 0 0 0 1.7h11a.85.85 0 0 0 0-1.7" fill="#43484D"/></g>
    </symbol>
    <symbol id="twitter" viewBox="0 0 17 15">
      <title>Twitter</title><path d="M14.315 1.129A3.44 3.44 0 0 0 11.769 0C9.845 0 8.283 1.602 8.283 3.578c0 .28.03.553.09.815-2.899-.15-5.468-1.572-7.19-3.74-.3.53-.472 1.146-.472 1.801a3.6 3.6 0 0 0 1.552 2.978 3.423 3.423 0 0 1-1.58-.446v.043c0 1.735 1.202 3.181 2.798 3.509a3.397 3.397 0 0 1-1.575.063c.444 1.42 1.731 2.455 3.258 2.483A6.885 6.885 0 0 1 0 12.567a9.705 9.705 0 0 0 5.347 1.606c6.415 0 9.923-5.45 9.923-10.18 0-.155-.003-.31-.009-.463A7.157 7.157 0 0 0 17 1.678a6.829 6.829 0 0 1-2.003.563A3.57 3.57 0 0 0 16.531.262c-.674.41-1.42.708-2.216.867z" fill-rule="evenodd"/>
    </symbol></svg>
